<svg width="112" height="24" fill="none" xmlns="http://www.w3.org/2000/svg"><path d="M54.866 8.348v.875a3.701 3.701 0 0 0-2.617-1.077c-2.299 0-4.06 1.901-4.06 4.256 0 2.355 1.76 4.223 4.06 4.223 1.023 0 1.93-.404 2.617-1.077v.876h1.644V8.349h-1.644zm-.375 5.343c-.785 1.254-2.27 1.631-3.449.888-1.179-.742-1.494-2.232-.71-3.485.786-1.254 2.279-1.645 3.458-.902 1.18.742 1.486 2.246.701 3.5zm35.591-5.343v.875a3.701 3.701 0 0 0-2.617-1.077c-2.299 0-4.06 1.901-4.06 4.256 0 2.355 1.76 4.223 4.06 4.223 1.024 0 1.93-.404 2.617-1.077v.876h1.644V8.349h-1.644zm-.374 5.343c-.785 1.254-2.27 1.631-3.449.888-1.18-.742-1.495-2.232-.71-3.485.785-1.254 2.279-1.645 3.458-.902 1.179.742 1.485 2.246.7 3.5zM63.02 11.608c0-.757-.168-1.127-.42-1.396-.251-.27-.637-.42-1.056-.42-.42 0-.806.15-1.057.42-.252.269-.42.639-.42 1.396v4.81h-1.711V8.345h1.61v.572a2.56 2.56 0 0 1 1.862-.774 2.86 2.86 0 0 1 2.265 1.11 3.082 3.082 0 0 1 2.4-1.11c.99 0 1.761.437 2.298 1.144.369.504.604 1.144.604 2.17v4.963h-1.712v-4.811c0-.757-.167-1.127-.42-1.396-.251-.27-.637-.42-1.056-.42-.42 0-.805.15-1.057.42-.252.269-.42.639-.42 1.396v4.81h-1.71v-4.81h.001zm12.796 0c0-.757-.168-1.127-.42-1.396-.252-.27-.637-.42-1.057-.42-.42 0-.805.15-1.057.42-.251.269-.42.639-.42 1.396v4.81h-1.71V8.345h1.61v.572a2.56 2.56 0 0 1 1.862-.774 2.86 2.86 0 0 1 2.265 1.11 3.081 3.081 0 0 1 2.4-1.11c.989 0 1.76.437 2.297 1.144.37.504.604 1.144.604 2.17v4.963h-1.71v-4.811c0-.757-.168-1.127-.42-1.396-.252-.27-.637-.42-1.057-.42-.42 0-.805.15-1.057.42-.251.269-.42.639-.42 1.396v4.81h-1.71v-4.81zm24.036-8.273h1.711v13.087h-1.711V3.335zM38.876 8.348v.875a3.7 3.7 0 0 0-2.617-1.077c-2.299 0-4.06 1.867-4.06 4.223s1.76 4.256 4.06 4.256a3.663 3.663 0 0 0 2.583-1.043v.841c0 1.38-.857 2.421-2.136 2.59-.998.133-2.096-.153-2.796-.73a2.45 2.45 0 0 1-.233-.221l-.898 1.466.065.057c.887.73 2.131 1.145 3.371 1.145.238 0 .476-.015.711-.047 2.118-.28 3.593-2.033 3.593-4.26V8.348h-1.644.001zm-2.45 6.628c-1.392 0-2.448-1.127-2.448-2.607 0-1.48 1.057-2.574 2.449-2.574s2.45 1.11 2.45 2.59c0 1.482-1.058 2.591-2.45 2.591zm72.849-6.656-2.536 5.767-2.338-5.767h-1.716l3.161 7.798-1.995 4.537h1.738l1.091-2.48.893-2.032 3.44-7.823h-1.738zm-61.676.224c-.594-.263-1.247-.372-1.887-.24a2.975 2.975 0 0 0-1.5.813 1.814 1.814 0 0 0-.236.269V8.343h-1.61v8.074h1.711v-4.02c0-.942.235-1.48.62-1.867.403-.404.956-.64 1.594-.64.199 0 .71.056 1.263.415l.813-1.328a4.705 4.705 0 0 0-.768-.433zM96.92 8.29a2.976 2.976 0 0 0-1.502.814c-.084.084-.168.168-.235.268V8.33h-1.61v8.075h1.711v-4.02c0-.943.235-1.481.62-1.868.403-.404.956-.64 1.595-.64.198 0 .668.005 1.258.235V8.513c-.58-.247-1.215-.351-1.838-.223z" fill="#1C1C1C"/><path d="M0 12C0 5.371 5.358 0 11.97 0c6.61 0 11.967 5.371 11.967 12 0 5.8-4.1 10.637-9.554 11.756-.779.16-1.586.244-2.41.244H0V12z" fill="#027E6F"/><path d="M20.251 10.863h-5.393l-1.27 2.206h4.447c-.697 3.837-4.952 6.449-9.205 4.24a5.013 5.013 0 0 1-2.14-2.126c-2.446-4.67.896-9.368 5.306-9.368 1.818 0 3.456.799 4.58 2.064l1.14-1.98a8.276 8.276 0 0 0-6.308-2.265c-4.16.287-7.534 3.745-7.736 7.92-.231 4.794 3.59 8.766 8.321 8.766 4.73 0 8.333-3.75 8.333-8.356 0-.374-.028-.741-.075-1.1z" fill="#fff"/></svg>